<svg width="413" height="242" viewBox="0 0 413 242" fill="none" xmlns="http://www.w3.org/2000/svg">
<path d="M183.434 233.599H176.826C175.15 233.599 173.788 232.238 173.788 230.563V163.587C173.788 161.913 175.15 160.552 176.826 160.552H183.434C185.11 160.552 186.472 161.913 186.472 163.587V230.563C186.457 232.238 185.11 233.599 183.434 233.599Z" fill="#EBF3FA"/>
<path d="M200.707 233.599H194.099C192.423 233.599 191.061 232.238 191.061 230.563V163.587C191.061 161.913 192.423 160.552 194.099 160.552H200.707C202.383 160.552 203.745 161.913 203.745 163.587V230.563C203.745 232.238 202.383 233.599 200.707 233.599Z" fill="#EBF3FA"/>
<path d="M217.979 233.599H211.371C209.695 233.599 208.333 232.238 208.333 230.563V163.587C208.333 161.913 209.695 160.552 211.371 160.552H217.979C219.655 160.552 221.017 161.913 221.017 163.587V230.563C221.017 232.238 219.655 233.599 217.979 233.599Z" fill="#EBF3FA"/>
<path d="M235.253 233.599H228.644C226.969 233.599 225.606 232.238 225.606 230.563V163.587C225.606 161.913 226.969 160.552 228.644 160.552H235.253C236.928 160.552 238.291 161.913 238.291 163.587V230.563C238.291 232.238 236.928 233.599 235.253 233.599Z" fill="#EBF3FA"/>
<path d="M252.525 233.599H245.917C244.241 233.599 242.879 232.238 242.879 230.563V163.587C242.879 161.913 244.241 160.552 245.917 160.552H252.525C254.201 160.552 255.563 161.913 255.563 163.587V230.563C255.563 232.238 254.201 233.599 252.525 233.599Z" fill="#EBF3FA"/>
<path d="M269.813 233.599H263.205C261.529 233.599 260.167 232.238 260.167 230.563V163.587C260.167 161.913 261.529 160.552 263.205 160.552H269.813C271.489 160.552 272.851 161.913 272.851 163.587V230.563C272.836 232.238 271.489 233.599 269.813 233.599Z" fill="#EBF3FA"/>
<path d="M274.778 0.143188V146.158H175.088V62.9581C175.73 62.4887 176.388 62.0037 177.03 61.5031C185.094 55.292 192.642 47.4225 198.859 37.7539C202.43 32.2155 206.627 27.303 211.356 23.0163C214.3 20.3566 217.447 17.916 220.767 15.7413C222.881 14.3489 225.074 13.0504 227.313 11.8457C233.295 8.63845 239.716 6.1196 246.434 4.24219C247.091 4.05445 247.749 3.88236 248.407 3.71026C249.941 3.31913 251.476 2.9593 253.042 2.63075C254.107 2.39608 255.187 2.19269 256.268 2.00495C257.583 1.77027 258.914 1.55124 260.261 1.3635C263.91 0.831571 267.606 0.48738 271.333 0.299639C272.037 0.268349 272.742 0.237059 273.462 0.205769C273.869 0.158834 274.324 0.158834 274.778 0.143188Z" fill="#EBF3FA"/>
<path d="M274.778 0.143229C274.324 0.158874 273.87 0.158874 273.415 0.174519V143.827H177.014V61.5031C176.372 62.0038 175.73 62.4888 175.072 62.9581C173.882 63.8186 172.692 64.6634 171.486 65.4613V149.726H278.928V0.111938C277.565 0.111938 276.172 0.111938 274.778 0.143229Z" fill="#C2D2FF"/>
<path d="M284.941 150.023H165.88V147.645C165.88 145.939 167.258 144.563 168.965 144.563H281.918C283.578 144.563 284.941 145.908 284.941 147.582V150.023Z" fill="#C2D2FF"/>
<path d="M227.313 11.8457V145.658H220.768V15.7413C222.882 14.3489 225.058 13.0504 227.313 11.8457Z" fill="#C2D2FF"/>
<path d="M225.105 78.1652H224.573C224.213 78.1652 223.931 77.8835 223.915 77.5237L223.68 69.9984C223.665 69.623 223.962 69.3101 224.338 69.3101H225.34C225.716 69.3101 226.014 69.623 225.998 69.9984L225.747 77.5237C225.747 77.8835 225.465 78.1652 225.105 78.1652Z" fill="#9DB0F4"/>
<path d="M264.833 75.2238L273.446 76.3971L264.504 143.874L255.892 142.701L264.833 75.2238Z" fill="#D2E4FF"/>
<path d="M264.677 142.669L264.504 143.874L255.892 142.701L256.048 141.496L264.677 142.669Z" fill="#F7941D"/>
<path d="M273.54 75.8025L273.368 77.0072L264.755 75.8338L264.911 74.6292L273.54 75.8025Z" fill="#F7941D"/>
<path d="M260.762 139.071C259.901 138.962 259.306 138.164 259.415 137.288C259.525 136.427 260.324 135.817 261.169 135.927C262.031 136.036 262.626 136.834 262.516 137.71C262.406 138.586 261.623 139.196 260.762 139.071Z" fill="#F7941D"/>
<path d="M268.09 83.7347C267.229 83.6251 266.634 82.8272 266.743 81.9511C266.853 81.075 267.652 80.4805 268.497 80.59C269.359 80.6995 269.954 81.4974 269.844 82.3735C269.734 83.2497 268.951 83.8598 268.09 83.7347Z" fill="#F7941D"/>
<path d="M260.918 104.777C262.813 105.419 264.05 107.343 263.784 109.44C263.502 111.52 261.811 113.054 259.807 113.163L260.918 104.777Z" fill="#F7941D"/>
<path d="M233.53 143.859H209.398C208.286 143.859 207.394 142.967 207.394 141.856V141.825C207.394 140.714 208.286 139.822 209.398 139.822H233.53C234.641 139.822 235.534 140.714 235.534 141.825V141.856C235.534 142.967 234.641 143.859 233.53 143.859Z" fill="#ED7D2B"/>
<path d="M188.241 143.858H215.145C216.633 143.858 217.854 142.638 217.854 141.152V120.61C217.854 119.124 216.633 117.903 215.145 117.903H188.241C186.754 117.903 185.532 119.124 185.532 120.61V141.136C185.517 142.638 186.738 143.858 188.241 143.858Z" fill="#ED7D2B"/>
<path d="M210.792 118.013C210.792 118.013 204.09 113.742 197.685 113.695C193.504 113.664 188.743 117.825 188.461 117.872C187.741 117.982 190.873 118.029 190.873 118.029C190.873 118.029 195.586 115.244 197.7 115.181C200.253 115.103 206.752 118.248 206.752 118.248L210.792 118.013Z" fill="#F7941D"/>
<path d="M185.094 143.858H211.997C213.485 143.858 214.706 142.638 214.706 141.152V120.61C214.706 119.124 213.485 117.903 211.997 117.903H185.094C183.606 117.903 182.385 119.124 182.385 120.61V141.136C182.385 142.638 183.606 143.858 185.094 143.858Z" fill="#F7941D"/>
<path d="M296.905 186.836H260.872V184.583H296.905C300.695 184.583 303.795 181.501 303.795 177.699V3.02185H306.05V177.699C306.05 182.737 301.948 186.836 296.905 186.836Z" fill="#EBF3FA"/>
<path d="M287.446 185.506H285.191V240.389H287.446V185.506Z" fill="#EBF3FA"/>
<path d="M279.772 240.373H241.171L239.73 208.332H281.088L279.772 240.373Z" fill="#9DB0F4"/>
<path d="M281.26 209.568H238.932C238.588 209.568 238.321 209.286 238.321 208.958V208.77C238.321 208.426 238.603 208.16 238.932 208.16H281.26C281.605 208.16 281.871 208.441 281.871 208.77V208.958C281.871 209.302 281.605 209.568 281.26 209.568Z" fill="#C2D2FF"/>
<path d="M276.688 219.095H244.037V227.888H276.688V219.095Z" fill="#C2D2FF"/>
<path d="M303.028 240.373H269.83L268.593 199.805H304.156L303.028 240.373Z" fill="#FF9E55"/>
<path d="M304.829 198.741H267.371V201.855H304.829V198.741Z" fill="#E58638"/>
<path d="M300.382 213.432H272.304V224.556H300.382V213.432Z" fill="#FFE4CC"/>
<path d="M137.787 237.463L171.502 231.346V240.858H137.614C137.614 240.842 137.943 237.306 137.787 237.463Z" fill="#F7941D"/>
<path d="M194.412 231.346H171.502V240.858H194.412V231.346Z" fill="#E58638"/>
<path d="M310.607 106.639L307.444 98.6601C307.147 97.9248 307.522 97.08 308.258 96.7827L308.305 96.7671C309.041 96.4698 309.887 96.8453 310.185 97.5806L313.348 105.56C313.645 106.295 313.269 107.14 312.533 107.437L312.486 107.453C311.735 107.75 310.889 107.374 310.607 106.639Z" fill="#2A4E96"/>
<path d="M301.822 94.921L311.688 91.0097C312.502 90.6812 313.426 91.0879 313.755 91.9015L314.663 94.17C314.992 94.9835 314.585 95.9066 313.771 96.2351L303.905 100.146C303.091 100.475 302.167 100.068 301.838 99.2546L300.946 96.9861C300.617 96.1726 301.008 95.2495 301.822 94.921Z" fill="#2A4E96"/>
<path d="M301.385 98.112L314.197 93.04L311.601 86.4947L298.789 91.5667L301.385 98.112Z" fill="#AFCDFB"/>
<path d="M299.489 93.1996C299.489 93.1996 300.867 93.6377 302.48 92.5269C304.093 91.4161 303.341 90.5243 305.267 90.8216C307.209 91.1188 308.885 90.2584 309.182 89.4761C309.48 88.6938 312.565 88.8503 312.565 88.8503L311.609 86.5035L298.784 91.5725L299.489 93.1996Z" fill="white"/>
<path d="M312.33 105.997C312.408 106.185 312.314 106.404 312.111 106.482C311.923 106.561 311.688 106.467 311.625 106.263C311.547 106.076 311.641 105.857 311.844 105.778C312.032 105.7 312.252 105.794 312.33 105.997Z" fill="#98C6F4"/>
<path d="M306.959 68.7466C306.959 68.7466 304.814 64.3034 303.076 62.9266C301.337 61.5498 296.702 61.8784 296.514 62.2382C295.966 63.3334 300.241 65.0387 300.727 66.04C301.212 67.0413 299.176 66.9474 300.742 68.684C302.073 70.1546 305.252 71.5627 305.252 71.5627L306.959 68.7466Z" fill="#FFB27D"/>
<path d="M305.096 68.246C306.223 66.4938 306.552 66.3999 306.552 66.3999C306.552 66.3999 325.171 73.8157 326.957 74.4415C328.726 75.0673 355.301 76.6161 355.301 76.6161L363.319 94.2168C363.319 94.2168 327.912 86.144 323.449 84.4856C316.058 81.7477 304.203 71.0152 304.203 71.0152C304.203 71.0152 304.219 69.6228 305.096 68.246Z" fill="#E58638"/>
<path d="M351.355 232.863C351.355 232.863 350.947 239.387 349.742 240.936H331.06C331.185 240.279 331.702 238.683 334.035 238.277C336.979 237.76 341.927 235.695 343.713 231.799C345.607 227.685 351.355 232.863 351.355 232.863Z" fill="#163560"/>
<path d="M384.505 231.956C384.505 231.956 385.664 240.435 384.067 240.592C383.848 240.607 376.957 240.607 374.264 240.592C370.913 240.576 365.542 240.607 365.542 240.607C364.852 240.639 364.398 239.888 364.743 239.293C365.134 238.636 365.87 237.932 367.28 237.666C370.224 237.103 375.125 234.944 376.848 231.017C378.664 226.871 384.505 231.956 384.505 231.956Z" fill="#163560"/>
<path d="M342.585 145.955C342.585 145.955 347.283 162.367 360.735 190.888C374.202 219.393 375.235 232.394 375.235 232.394L384.506 231.956C384.506 231.956 383.629 198.022 377.271 183.628C370.913 169.235 369.614 129.872 369.614 129.872L342.585 145.955Z" fill="#233862"/>
<path d="M335.037 131.828C335.037 131.828 334.661 157.251 339.062 188.463C343.462 219.675 341.975 232.926 341.975 232.926L352.514 233.27C352.514 233.27 358.809 202.043 357.008 186.413C355.207 170.784 365.636 132.798 365.636 132.798L335.037 131.828Z" fill="#2A4E96"/>
<path d="M355.848 72.3295L350.868 76.0061L343.681 74.4885C343.775 73.8314 344.26 71.1248 344.683 68.6686C344.714 68.5277 344.73 68.3713 344.761 68.2305C345.137 66.1341 345.45 64.3349 345.45 64.3349L352.168 60.9868L354.674 59.7352C354.674 59.7822 354.486 62.0507 354.455 62.3949C353.985 68.3244 355.848 72.3295 355.848 72.3295Z" fill="#FFB27D"/>
<path d="M344.182 70.4833C344.339 70.4207 353.954 67.5733 355.003 67.9332C356.052 68.2774 356.663 70.2956 356.663 70.2956L341.817 74.5197C341.817 74.5197 342.178 71.3281 344.182 70.4833Z" fill="#E58638"/>
<path d="M370.099 134.972C368.47 142.403 334.473 119.092 334.927 114.555C334.974 114.055 335.021 113.554 335.084 113.053C335.71 106.733 336.305 100.553 336.352 96.5322C336.384 93.0277 336.869 89.4606 337.511 86.2065C338.106 83.2026 338.827 80.4804 339.453 78.3683C339.892 76.882 340.721 75.5522 341.833 74.5196C342.616 73.7843 343.525 73.1898 344.542 72.7987C344.824 72.6891 345.106 72.5796 345.388 72.5014C349.491 71.3124 355.144 69.8417 356.679 70.2954C360.844 71.5158 363.929 78.8376 366.122 88.1621C370.209 105.606 371.148 130.122 370.099 134.972Z" fill="#F7941D"/>
<path d="M353.954 62.5199C352.482 65.336 346.986 67.7766 344.699 68.6684C344.731 68.5276 344.746 68.3712 344.778 68.2304C345.153 66.1339 345.467 64.3347 345.467 64.3347L352.185 60.9867C353.657 60.9867 354.565 61.3622 353.954 62.5199Z" fill="#FCA56B"/>
<path d="M342.194 63.9593C342.194 63.9593 354.299 67.7297 356.538 60.1575C358.777 52.5853 361.847 47.97 354.205 45.2478C346.563 42.5099 344.198 44.9662 342.836 47.313C341.489 49.6597 339.109 62.7859 342.194 63.9593Z" fill="#FFB27D"/>
<path d="M343.32 46.5777C343.32 46.5777 344.088 55.3858 345.92 55.0103C347.737 54.6349 349.396 54.3376 349.13 56.9973C348.864 59.6569 346.327 62.7233 351.949 63.1927C357.571 63.662 365.651 49.1747 364.101 46.4368C359.654 38.5361 336.884 36.9403 343.32 46.5777Z" fill="#163560"/>
<path d="M335.945 131.828C339.312 133.048 335.883 128.479 335.945 127.541C336.211 123.364 334.567 118.076 335.068 113.053L355.63 100.772C355.63 100.772 360.515 131.64 335.945 131.828Z" fill="#E58638"/>
<path d="M370.099 134.972C361.314 151.227 359.92 157.438 359.92 157.438C352.278 156.562 339.186 141.559 335.037 137.554C335.037 137.554 334.473 119.092 334.927 114.555L341.269 114.368C341.269 114.368 352.748 117.278 355.707 113.335C358.683 109.392 357.399 90.0395 357.399 90.0395L366.121 88.1621C370.208 105.606 372.448 130.607 370.099 134.972Z" fill="#2A4E96"/>
<path d="M317.999 103.823C317.999 103.823 313.818 100.991 313.035 100.756C312.236 100.506 311.782 99.2858 311.641 99.0824C311.171 98.394 310.936 99.6144 311.14 100.068C311.39 100.6 311.751 101.351 310.576 101.179C310.357 101.148 308.462 101.101 308.071 101.977C307.679 102.853 307.335 105.825 309.339 106.733C311.343 107.64 316.292 106.827 316.652 106.921C319.674 107.797 317.999 103.823 317.999 103.823Z" fill="#FFB27D"/>
<path d="M317.968 103.056C317.968 103.056 338.357 106.514 340.173 105.638C343.055 104.23 339.061 83.5625 339.061 83.5625C339.061 83.5625 338.889 78.8846 344.37 77.7738C349.131 76.8195 353.719 80.3709 353.719 80.3709C353.719 80.3709 357.9 84.1101 357.368 88.2404C356.177 97.424 354.345 116.089 348.191 118.952C340.267 122.644 317.326 108.72 317.326 108.72C317.326 108.72 316.558 107.781 316.668 106.044C316.762 104.527 317.968 103.056 317.968 103.056Z" fill="#F7941D"/>
<path d="M359.09 89.6641L357.399 90.0239C357.399 90.0239 353.828 74.5823 341.817 74.504C342.6 73.7687 343.509 73.1742 344.527 72.7831C348.927 73.9721 356.569 77.7269 359.09 89.6641Z" fill="#2A4E96"/>
<path d="M305.361 64.2879L298.283 68.4964C297.625 68.8875 296.78 68.6842 296.42 68.0583L296.404 68.0271C296.028 67.4013 296.263 66.5721 296.921 66.1809L303.999 61.9724C304.657 61.5813 305.502 61.7847 305.862 62.4105L305.878 62.4418C306.254 63.0676 306.019 63.8968 305.361 64.2879Z" fill="#2A4E96"/>
<path d="M297.814 78.0867L288.246 62.0036C287.651 61.0023 287.979 59.6881 288.982 59.0936L289.953 58.5148C290.955 57.9203 292.27 58.2488 292.865 59.2501L302.433 75.3332C303.028 76.3345 302.7 77.6487 301.697 78.2432L300.726 78.822C299.724 79.4322 298.424 79.088 297.814 78.0867Z" fill="#2A4E96"/>
<path d="M301.227 78.5404L295.418 81.9823L283.673 62.2383L284.879 61.5343L289.483 58.7964L301.227 78.5404Z" fill="#AFCDFB"/>
<path d="M297.078 80.9342L295.433 81.9824L283.688 62.2383L284.879 61.5343C285.568 62.0349 288.653 64.3817 288.888 66.9475C289.154 69.8418 292.693 71.7662 292.802 73.2994C292.896 74.8326 292.802 77.0385 294.682 77.68C296.529 78.3214 297.078 80.9342 297.078 80.9342Z" fill="white"/>
<path d="M304.516 62.8017C304.688 62.6922 304.907 62.7547 305.017 62.9268C305.126 63.0989 305.064 63.318 304.891 63.4275C304.719 63.537 304.5 63.4744 304.39 63.3023C304.296 63.1302 304.343 62.9112 304.516 62.8017Z" fill="#98C6F4"/>
<path d="M302.324 67.4638C302.308 67.4482 301.384 66.3374 300.476 65.2578C299.802 64.46 299.395 63.443 299.098 63.1301C298.409 62.4104 297.829 64.0375 298.847 66.087C299.708 67.8236 301.306 69.2473 301.87 69.6228C302.418 70.0296 302.324 67.4638 302.324 67.4638Z" fill="#FFB27D"/>
<path d="M144.865 170.612C144.583 170.486 144.458 170.158 144.583 169.876L147.042 164.26C147.229 163.822 147.026 163.29 146.587 163.102L134.201 157.689C133.198 157.251 132.744 156.077 133.183 155.076L135.031 150.836C135.469 149.835 136.643 149.381 137.646 149.819L142.782 152.072C143.064 152.197 143.189 152.526 143.064 152.808C142.939 153.089 142.61 153.214 142.328 153.089L137.192 150.836C136.753 150.649 136.221 150.852 136.033 151.29L134.185 155.53C133.997 155.968 134.201 156.5 134.639 156.688L147.026 162.101C148.028 162.539 148.482 163.712 148.044 164.713L145.585 170.33C145.476 170.612 145.147 170.737 144.865 170.612Z" fill="#C2D2FF"/>
<path d="M144.552 172.739L143.299 172.192C142.829 171.988 142.61 171.425 142.813 170.956L145.617 164.557C145.82 164.088 146.384 163.869 146.854 164.072L148.106 164.62C148.576 164.823 148.795 165.386 148.592 165.856L145.789 172.254C145.57 172.739 145.021 172.943 144.552 172.739Z" fill="#F7941D"/>
<path d="M164.095 159.629L162.357 163.603C161.903 164.635 160.697 165.105 159.664 164.651L139.055 155.639C138.022 155.186 137.552 153.981 138.006 152.949L139.744 148.975C140.199 147.942 141.404 147.473 142.438 147.926L163.046 156.938C164.08 157.376 164.549 158.581 164.095 159.629Z" fill="#C2D2FF"/>
<path d="M164.095 159.629L163.5 161.006C163.045 162.038 161.84 162.508 160.806 162.054L140.198 153.042C139.164 152.589 138.695 151.384 139.149 150.351L139.744 148.975C140.198 147.942 141.404 147.473 142.437 147.926L163.046 156.938C164.079 157.376 164.549 158.581 164.095 159.629Z" fill="#EBF3FA"/>
<path d="M107.799 175.728C107.799 175.728 112.278 176.369 113.311 177.542C114.345 178.716 115.002 179.623 114.345 180.14C113.703 180.656 103.821 178.121 103.821 178.121L107.799 175.728Z" fill="#FFB27D"/>
<path d="M97.0093 159.895L109.083 175.336C109.083 175.336 108.049 177.417 104.667 177.808C101.284 178.199 94.1436 175.994 94.1436 175.336C94.1592 174.695 97.0093 159.895 97.0093 159.895Z" fill="#E58638"/>
<path d="M135.25 193.344C131.742 197.381 124.335 200.009 110.038 200.666C108.895 200.713 107.736 200.76 106.577 200.807C105.387 200.838 104.181 200.869 102.991 200.885C99.1074 200.932 95.2394 200.901 91.5594 200.775C87.989 200.65 84.5908 200.463 81.5059 200.197C75.4769 199.696 70.6694 198.961 68.1795 198.131C67.4278 197.881 66.8954 197.631 66.5978 197.349C66.3473 197.115 66.1437 196.849 65.9871 196.551C65.0788 194.877 65.5643 192.139 66.6448 189.12C68.2264 184.724 71.1391 179.749 73.1123 176.635C73.5038 176.009 73.8639 175.462 74.1615 175.008C74.7565 174.101 75.1324 173.553 75.1324 173.553C75.1324 173.553 81.8034 174.179 90.9487 175.352C92.8122 175.587 94.7853 175.853 96.8211 176.15C116.474 178.919 136.049 183.91 136.033 190.544C136.002 191.561 136.064 192.39 135.25 193.344Z" fill="#2B478B"/>
<path d="M110.915 200.588C109.725 200.619 104.181 200.869 102.991 200.885C99.1074 200.932 95.2395 200.901 91.5594 200.775L88.0986 186.836C93.4386 194.283 109.192 200.103 110.915 200.588Z" fill="#2C3A64"/>
<path d="M99.3267 241.093H118.385C118.087 240.373 117.351 239.418 115.597 239.121C112.59 238.589 107.391 236.978 108.049 232.644C108.722 228.264 101.425 227.685 101.425 227.685C101.425 227.685 98.3714 239.418 99.3267 241.093Z" fill="#2C3A64"/>
<path d="M135.548 192.624C135.548 192.624 111.917 229.766 109.944 234.177C109.944 234.177 101.911 234.928 99.9688 229.187C99.9688 229.187 114.016 189.98 120.185 186.757C126.371 183.534 135.548 192.624 135.548 192.624Z" fill="#2B478B"/>
<path d="M87.8945 114.43C87.8945 114.43 96.0376 125.554 103.288 126.149C103.288 126.149 102.364 121.956 100.219 119.312C100.798 118.389 101.299 117.528 101.722 116.777C103.147 114.258 103.773 112.741 103.773 112.741L100.438 106.702L99.7489 103.463C99.1852 104.981 98.5275 106.389 97.7915 107.547C93.9862 113.539 87.8945 114.43 87.8945 114.43Z" fill="#FFB27D"/>
<path d="M97.4785 107.515C97.4785 107.515 96.304 113.085 101.722 116.793C103.147 114.274 103.774 112.756 103.774 112.756L100.438 106.717C97.776 106.326 97.4785 107.515 97.4785 107.515Z" fill="#ED975D"/>
<path d="M104.792 116.12C104.792 116.12 94.5816 110.566 98.152 104.261C101.707 97.9559 102.787 92.9964 109.458 96.2819C116.129 99.5674 116.02 102.681 115.346 105.059C114.673 107.468 107.548 117.403 104.792 116.12Z" fill="#FFB27D"/>
<path d="M98.183 91.7294C98.1204 91.5729 97.9325 91.3852 97.4157 91.1505C97.4157 91.1505 97.9325 91.041 98.4962 91.2444C98.8877 90.5403 99.7803 89.3826 101.158 89.5547C101.158 89.5547 100.344 89.6642 99.9526 90.4152C101.988 89.4608 105.527 89.5547 113.874 93.5755C124.883 98.8635 118.29 104.793 116.474 105.106C114.657 105.419 111.901 101.586 109.067 100.741C106.248 99.9117 104.165 103.713 103.022 103.917C101.879 104.105 102.615 103.275 101.581 102.212C100.548 101.148 99.608 103.213 99.4358 104.73C99.2635 106.248 96.8363 107.39 96.8363 107.39C96.8363 107.39 96.8363 107.39 95.8341 104.809C94.8318 102.227 96.3039 93.5129 97.7602 92.1048C97.9168 91.9797 98.0577 91.8545 98.183 91.7294Z" fill="#2B478B"/>
<path d="M37.2359 228.937C37.2359 228.937 34.8557 232.535 34.3076 233.708C33.7595 234.882 34.84 237.354 36.4686 237.729C37.9093 238.058 38.1129 240.608 38.1129 240.608H31.1443C30.4083 240.608 29.7349 240.201 29.4531 239.575C28.4665 237.416 28.2473 234.616 28.0437 233.677C27.6209 231.706 26.8066 230.047 27.1667 228.029C27.5269 226.027 30.9564 224.869 37.2046 224.884C44.0949 224.9 37.2359 228.937 37.2359 228.937Z" fill="#233862"/>
<path d="M57.7033 185.521C62.9493 191.075 101.504 179.576 98.2777 176.651C97.4633 175.9 97.7296 175.008 97.4007 173.819C95.8034 168.14 98.9823 158.409 100.345 154.638C100.658 153.762 100.877 153.214 100.924 153.105C102.224 149.585 103.242 145.924 103.899 142.372C105.168 135.582 105.152 129.262 103.414 125.382C103.398 125.366 103.398 125.351 103.383 125.335C96.1636 123.223 92.186 112.615 92.186 112.615C92.186 112.615 69.3072 119.108 60.9919 151.712C60.9919 151.712 60.5691 153.793 60.0366 156.907C59.88 157.861 59.7078 158.925 59.5355 160.051C58.6429 165.856 58.1418 173.303 57.6094 178.841C57.5937 179.029 57.578 179.232 57.5467 179.435C57.2805 181.814 56.8264 184.598 57.7033 185.521Z" fill="#F7941D"/>
<path d="M88.0515 180.014C88.0515 180.014 84.2149 180.515 76.4633 181.094C68.4299 181.688 59.9267 182.956 58.533 185.647C58.0788 186.538 58.392 188.791 59.2846 191.92C61.2577 198.82 66.0653 209.928 71.5462 219.784C57.4681 220.598 38.3163 223.711 38.3163 223.711C35.1843 227.247 36.4997 231.393 36.4997 231.393C37.502 231.408 40.5243 231.831 44.6428 232.488C59.5822 234.897 77.7787 239.825 89.0537 239.825C91.528 239.825 93.3602 238.073 94.1118 235.789C98.7628 221.677 88.0515 180.014 88.0515 180.014Z" fill="#2B478B"/>
<path d="M59.2846 192.968C67.0518 192.718 86.5481 183.159 86.2349 183.081C82.6019 182.189 79.3603 181.579 76.4633 181.188C68.4299 181.829 59.9266 183.206 58.5329 186.147C58.0788 187.117 58.392 189.573 59.2846 192.968Z" fill="#2C3A64"/>
<path d="M84.2461 134.894C84.2461 134.894 84.7002 170.221 97.4003 173.819C95.803 168.14 98.9819 158.409 100.344 154.638C97.0714 145.548 91.0424 136.396 84.2461 134.894Z" fill="#E58638"/>
<path d="M88.3332 114.195C88.3332 114.195 98.1048 116.229 99.0601 124.787C99.7491 131.03 92.9371 145.141 92.9371 145.141L91.6374 143.843C91.6374 143.843 97.6194 126.414 96.7111 123.442C95.5367 119.64 89.9148 113.945 84.7314 116.229L88.3332 114.195Z" fill="#2B478B"/>
<path d="M57.7033 185.521C62.9493 191.075 102.334 179.701 99.1076 176.776C98.2933 176.025 97.7296 175.008 97.4007 173.819C95.8034 168.14 98.9823 158.409 100.345 154.638C100.658 153.762 100.877 153.214 100.924 153.105L98.9354 151.118L91.6536 143.859C91.6536 143.859 89.4925 146.299 85.421 149.068C80.0811 152.698 71.4526 156.907 60.0366 156.922C59.88 157.877 59.7078 158.94 59.5355 160.067C58.6429 165.871 58.1418 173.318 57.6094 178.857C57.5937 179.044 57.578 179.248 57.5467 179.451C57.2805 181.814 56.8264 184.598 57.7033 185.521Z" fill="#2B478B"/>
<path d="M85.4209 149.068C86.8773 159.332 90.1345 171.769 97.4006 173.835C95.8033 168.155 98.9822 158.424 100.345 154.654C99.9218 153.48 99.452 152.291 98.9352 151.134L91.6535 143.874C91.6378 143.843 89.4924 146.299 85.4209 149.068Z" fill="#2C3A64"/>
<path d="M144.928 172.286C142.547 172.286 138.116 170.111 137.709 170.08C134.31 169.751 137.583 166.419 137.583 166.419C137.583 166.419 142.908 165.245 143.8 165.324C144.098 165.339 144.583 165.449 145.1 165.574L144.52 166.935C144.52 166.935 148.232 167.498 148.279 168.531C148.373 169.563 146.102 172.286 144.928 172.286Z" fill="#FFB27D"/>
<path d="M138.648 168.077C139.463 165.715 138.319 164.979 138.319 164.979C138.319 164.979 115.049 153.95 113.139 152.745C111.228 151.525 98.4341 128.245 98.4341 128.245C98.4341 128.245 93.6892 118.717 87.6446 118.92C82.3986 119.093 79.4702 122.362 77.8573 125.789C75.9311 129.872 76.7454 134.722 79.8461 138.007C86.8146 145.376 100.814 159.973 104.432 162.179C112.497 167.107 136.691 171.097 136.691 171.097C136.691 171.097 138.006 169.939 138.648 168.077Z" fill="#F7941D"/>
<path d="M247.546 224.869C245.604 233.599 238.98 240.576 232.763 240.451C226.546 240.326 223.07 233.161 225.027 224.431C226.985 215.701 233.593 208.723 239.81 208.848C246.011 208.973 249.488 216.139 247.546 224.869Z" fill="#8097D8"/>
<path d="M246.137 224.556C244.195 233.286 237.571 240.264 231.354 240.139C225.137 240.013 221.661 232.848 223.618 224.118C225.56 215.388 232.184 208.41 238.401 208.536C244.618 208.645 248.094 215.826 246.137 224.556Z" fill="#C2D2FF"/>
<path d="M231.949 237.854C231.902 237.854 231.855 237.854 231.808 237.854C229.804 237.807 228.081 236.931 226.797 235.304C224.761 232.707 224.135 228.514 225.122 224.071C226.782 216.593 232.482 210.601 237.822 210.71C239.826 210.757 241.549 211.633 242.833 213.26C244.869 215.857 245.495 220.05 244.508 224.494C242.864 231.894 237.242 237.854 231.949 237.854ZM237.696 210.867C232.466 210.867 226.923 216.765 225.294 224.102C224.307 228.499 224.934 232.645 226.938 235.195C228.191 236.775 229.882 237.635 231.824 237.682C231.871 237.682 231.918 237.682 231.965 237.682C237.195 237.682 242.739 231.784 244.367 224.447C245.354 220.05 244.728 215.904 242.723 213.354C241.47 211.774 239.779 210.914 237.837 210.867C237.775 210.867 237.743 210.867 237.696 210.867Z" fill="#8097D8"/>
</svg>
