<svg width="72" height="72" viewBox="0 0 72 72" fill="none" xmlns="http://www.w3.org/2000/svg">
<path d="M21.8407 53.3408L25.8885 49.293C27.4185 52.083 30.3503 54 33.75 54C38.8485 54 43.9245 51.507 48.8408 46.5908C49.7205 45.711 49.7205 44.289 48.8408 43.4092C43.9245 38.493 38.8485 36 33.75 36C30.3503 36 27.4185 37.917 25.8885 40.707L21.8407 36.6592C21.195 36.0135 20.2297 35.82 19.3882 36.171C18.549 36.5198 18 37.341 18 38.25V51.75C18 52.6613 18.5467 53.4825 19.3882 53.829C20.2297 54.1777 21.1973 53.9843 21.8407 53.3408ZM22.5 46.3185V43.6815L23.8185 45L22.5 46.3185ZM33.75 49.5C31.2682 49.5 29.25 47.4818 29.25 45C29.25 42.5182 31.2682 40.5 33.75 40.5C37.0665 40.5 40.491 42.012 43.9515 45C40.491 47.988 37.0665 49.5 33.75 49.5ZM36 45C36 43.758 37.008 42.75 38.25 42.75C39.492 42.75 40.5 43.758 40.5 45C40.5 46.242 39.492 47.25 38.25 47.25C37.008 47.25 36 46.242 36 45ZM60.4282 16.5825C60.0008 16.056 59.3595 15.75 58.6822 15.75H13.3177C12.6405 15.75 11.9993 16.056 11.5718 16.5825C6.94575 22.2772 4.5 29.1217 4.5 36.3757C4.5 46.9485 9.77175 56.763 18.6007 62.6265C18.9698 62.8695 19.4017 63 19.845 63H52.1572C52.6005 63 53.0325 62.8695 53.4015 62.6243C62.2305 56.7607 67.5 46.9485 67.5 36.3757C67.5 29.1217 65.0543 22.2772 60.4282 16.5825ZM14.4158 20.25H57.5865C58.797 21.8587 59.796 23.571 60.606 25.353C60.3383 26.307 59.517 27 58.5 27C57.2603 27 56.25 25.9897 56.25 24.75C56.25 23.508 55.242 22.5 54 22.5C52.758 22.5 51.75 23.508 51.75 24.75C51.75 25.9897 50.7397 27 49.5 27C48.2603 27 47.25 25.9897 47.25 24.75C47.25 23.508 46.242 22.5 45 22.5C43.758 22.5 42.75 23.508 42.75 24.75C42.75 25.9897 41.7397 27 40.5 27C39.2603 27 38.25 25.9897 38.25 24.75C38.25 23.508 37.242 22.5 36 22.5C34.758 22.5 33.75 23.508 33.75 24.75C33.75 25.9897 32.7397 27 31.5 27C30.2603 27 29.25 25.9897 29.25 24.75C29.25 23.508 28.242 22.5 27 22.5C25.758 22.5 24.75 23.508 24.75 24.75C24.75 25.9897 23.7397 27 22.5 27C21.2603 27 20.25 25.9897 20.25 24.75C20.25 23.508 19.242 22.5 18 22.5C16.758 22.5 15.75 23.508 15.75 24.75C15.75 25.9897 14.7397 27 13.5 27C12.483 27 11.6618 26.307 11.394 25.353C12.2063 23.571 13.2052 21.8587 14.4158 20.25ZM51.462 58.5H20.538C13.302 53.4352 9 45.2137 9 36.3757C9 34.308 9.24525 32.2808 9.702 30.312C10.7865 31.0545 12.087 31.5 13.5 31.5C15.228 31.5 16.8053 30.8475 18 29.7765C19.1947 30.8475 20.772 31.5 22.5 31.5C24.228 31.5 25.8053 30.8475 27 29.7765C28.1947 30.8475 29.772 31.5 31.5 31.5C33.228 31.5 34.8053 30.8475 36 29.7765C37.1948 30.8475 38.772 31.5 40.5 31.5C42.228 31.5 43.8052 30.8475 45 29.7765C46.1948 30.8475 47.772 31.5 49.5 31.5C51.228 31.5 52.8052 30.8475 54 29.7765C55.1948 30.8475 56.772 31.5 58.5 31.5C59.913 31.5 61.2135 31.0545 62.298 30.3097C62.7547 32.2785 63 34.3057 63 36.3757C63 45.2137 58.7002 53.4352 51.462 58.5ZM45 36C45 34.758 46.008 33.75 47.25 33.75C48.492 33.75 49.5 34.758 49.5 36C49.5 37.242 48.492 38.25 47.25 38.25C46.008 38.25 45 37.242 45 36ZM54 42.75C55.242 42.75 56.25 41.742 56.25 40.5C56.25 39.258 55.242 38.25 54 38.25C52.758 38.25 51.75 39.258 51.75 40.5C51.75 41.742 52.758 42.75 54 42.75ZM58.5 38.25C59.742 38.25 60.75 37.242 60.75 36C60.75 34.758 59.742 33.75 58.5 33.75C57.258 33.75 56.25 34.758 56.25 36C56.25 37.242 57.258 38.25 58.5 38.25Z" fill="#ED145B"/>
</svg>
