<svg width="14" height="17" viewBox="0 0 14 17" fill="none" xmlns="http://www.w3.org/2000/svg">
<path d="M13.125 17.0001H11.6806V13.428C11.68 12.8726 11.4548 12.3402 11.0544 11.9475C10.654 11.5548 10.1112 11.334 9.54494 11.3334H3.70506C3.13883 11.334 2.59596 11.5548 2.19558 11.9475C1.7952 12.3402 1.57002 12.8726 1.56944 13.428V17.0001H0.125V13.428C0.126147 12.4971 0.503698 11.6046 1.17484 10.9464C1.84598 10.2882 2.75592 9.91787 3.70506 9.91675H9.54494C10.4941 9.91787 11.404 10.2882 12.0752 10.9464C12.7463 11.6046 13.1239 12.4971 13.125 13.428V17.0001Z" fill="white"/>
<path d="M6.62435 8.5C5.7673 8.5 4.92949 8.25074 4.21688 7.78375C3.50427 7.31675 2.94885 6.65299 2.62087 5.87641C2.29289 5.09982 2.20708 4.24529 2.37428 3.42087C2.54148 2.59645 2.95419 1.83917 3.56022 1.2448C4.16625 0.650425 4.93838 0.245652 5.77896 0.0816645C6.61955 -0.0823227 7.49083 0.00184147 8.28265 0.323514C9.07446 0.645186 9.75123 1.18992 10.2274 1.88883C10.7035 2.58774 10.9577 3.40943 10.9577 4.25C10.9565 5.37683 10.4996 6.45718 9.68722 7.25396C8.87481 8.05075 7.77327 8.49888 6.62435 8.5V8.5ZM6.62435 1.41667C6.05298 1.41667 5.49445 1.58284 5.01937 1.89417C4.5443 2.2055 4.17402 2.64801 3.95537 3.16573C3.73671 3.68346 3.6795 4.25315 3.79097 4.80276C3.90244 5.35237 4.17758 5.85722 4.5816 6.25347C4.98562 6.64972 5.50037 6.91957 6.06076 7.02889C6.62115 7.13822 7.20201 7.08211 7.72988 6.86766C8.25776 6.65321 8.70894 6.29006 9.02638 5.82412C9.34381 5.35818 9.51324 4.81038 9.51324 4.25C9.51324 3.49856 9.20888 2.77789 8.66711 2.24653C8.12533 1.71518 7.39053 1.41667 6.62435 1.41667Z" fill="white"/>
</svg>
