<svg width="305" height="338" viewBox="0 0 305 338" fill="none" xmlns="http://www.w3.org/2000/svg">
<mask id="mask0_12_18" style="mask-type:alpha" maskUnits="userSpaceOnUse" x="0" y="0" width="305" height="338">
<rect width="305" height="338" rx="40" fill="#F6FAFF"/>
</mask>
<g mask="url(#mask0_12_18)">
<rect width="305" height="338" rx="40" fill="#E4E9FF"/>
<path opacity="0.2" d="M152.494 308.29C147.654 304.168 141.974 301.098 136.032 298.867C122.82 294.156 108.568 294.357 95.5636 288.665C86.0815 284.459 77.4582 277.056 74.4081 267.168C71.9717 259.355 73.13 251.027 72.6354 242.904C71.1621 213.511 45.6275 187.144 16.2753 184.406C3.92934 183.322 -13.0058 186.248 -22.4101 194.763C-29.8269 201.552 -34.0926 211.693 -33.6256 221.719C-32.9607 234.468 -25.1966 246.387 -25.9948 259.186C-26.6937 272.031 -35.3488 282.324 -45.9447 288.979C-54.5353 294.395 -64.2544 298.339 -72.2762 304.613C-80.298 310.886 -86.7222 320.761 -85.1805 330.798C-83.4314 342.486 -72.1168 350.041 -61.9307 356.123C-49.0987 363.771 -21.9882 373.265 -14.8388 387.057C-6.58809 402.907 -21.45 421.02 -25.3556 435.633C-30.554 454.922 -17.9253 479.591 1.49119 485.695C14.4867 489.827 29.7693 485.789 38.9752 475.867C49.8254 464.182 51.7808 447.003 58.6758 432.676C64.2063 421.078 73.4302 411.643 84.3693 405.024C96.4557 397.733 105.866 398.674 118.692 396.866C142.934 393.443 162.856 366.868 165.183 343.876C166.025 334.926 164.899 325.557 160.313 317.721C158.273 314.038 155.618 310.912 152.494 308.29Z" fill="#778CEB"/>
</g>
</svg>
