<svg width="305" height="338" viewBox="0 0 305 338" fill="none" xmlns="http://www.w3.org/2000/svg">
<mask id="mask0_11_3070" style="mask-type:alpha" maskUnits="userSpaceOnUse" x="0" y="0" width="305" height="338">
<rect width="305" height="338" rx="40" fill="#F6FAFF"/>
</mask>
<g mask="url(#mask0_11_3070)">
<rect width="305" height="338" rx="40" fill="#EEFDD7"/>
<path opacity="0.2" d="M130.593 214C124.384 212.633 117.928 212.59 111.633 213.41C97.7568 215.455 85.268 222.325 71.1138 223.405C60.7673 224.145 49.6773 221.657 42.3414 214.359C36.5216 208.605 33.6341 200.709 29.3827 193.769C14.2801 168.51 -20.6451 157.221 -47.8458 168.586C-59.255 173.426 -72.8332 183.962 -77.1378 195.896C-80.4982 205.372 -79.5025 216.329 -74.3824 224.962C-67.8088 235.906 -55.3575 242.783 -50.052 254.458C-44.6375 266.127 -47.4459 279.279 -53.676 290.13C-58.7175 298.946 -65.4467 306.991 -69.5833 316.297C-73.7199 325.603 -74.7551 337.338 -68.6806 345.476C-61.6482 354.974 -48.1112 356.33 -36.2619 356.917C-21.3413 357.645 7.05257 353.297 19.841 362.117C34.5682 372.237 29.9516 395.207 33.3652 409.943C37.8331 429.414 60.5663 445.264 80.5754 441.536C93.9896 439.082 105.586 428.34 109.055 415.258C113.148 399.846 106.808 383.761 106.168 367.874C105.605 355.037 109.318 342.376 115.869 331.396C123.116 319.282 131.867 315.695 142.341 308.076C162.137 293.671 167.247 260.853 158.506 239.461C155.047 231.163 149.653 223.42 141.924 218.655C138.394 216.361 134.582 214.848 130.593 214Z" fill="#89B849"/>
</g>
</svg>
