<svg width="305" height="338" viewBox="0 0 305 338" fill="none" xmlns="http://www.w3.org/2000/svg">
<mask id="mask0_12_7" style="mask-type:alpha" maskUnits="userSpaceOnUse" x="0" y="0" width="305" height="338">
<rect width="305" height="338" rx="40" fill="#F6FAFF"/>
</mask>
<g mask="url(#mask0_12_7)">
<rect width="305" height="338" rx="40" fill="#FDE9D2"/>
<path opacity="0.2" d="M266.428 -115.04C260.538 -112.648 255.194 -109.025 250.472 -104.783C240.198 -95.2339 233.8 -82.4967 222.75 -73.5857C214.645 -67.1134 204.097 -62.8787 193.918 -64.7346C185.862 -66.1776 179.008 -71.0472 171.572 -74.3566C144.815 -86.6105 109.641 -76.121 93.67 -51.3427C87.0122 -40.8893 81.7948 -24.5144 85.0106 -12.2422C87.6119 -2.52974 94.641 5.93357 103.752 10.145C115.369 15.4371 129.526 14.0476 140.513 20.6612C151.587 27.2076 156.726 39.6353 157.742 52.1066C158.583 62.2269 157.598 72.6693 159.463 82.6808C161.328 92.6923 167.125 102.948 176.741 106.211C187.918 110.052 199.84 103.498 209.936 97.2675C222.642 89.4116 243.573 69.7392 259.108 69.7595C276.977 69.7522 286.19 91.2944 297.353 101.502C312.068 115.013 339.781 115.19 354.154 100.78C363.817 91.1571 367.284 75.7349 362.729 62.9896C357.368 47.9721 343.029 38.3116 333.5 25.5843C325.761 15.3264 321.646 2.78978 320.821 -9.969C319.928 -24.0563 325.105 -31.9711 329.418 -44.1844C337.566 -67.2711 323.18 -97.2068 303.855 -109.88C296.303 -114.756 287.47 -118.08 278.402 -117.626C274.194 -117.515 270.196 -116.602 266.428 -115.04Z" fill="#FFB27D"/>
</g>
</svg>
