<svg width="305" height="338" viewBox="0 0 305 338" fill="none" xmlns="http://www.w3.org/2000/svg">
<mask id="mask0_12_28" style="mask-type:alpha" maskUnits="userSpaceOnUse" x="0" y="0" width="305" height="338">
<rect width="305" height="338" rx="40" fill="#F6FAFF"/>
</mask>
<g mask="url(#mask0_12_28)">
<rect width="305" height="338" rx="40" fill="#FFEBEB"/>
<path opacity="0.2" d="M412.494 29.2902C407.654 25.1679 401.974 22.0983 396.032 19.8665C382.82 15.1564 368.568 15.3571 355.564 9.66484C346.081 5.45938 337.458 -1.94445 334.408 -11.8323C331.972 -19.6452 333.13 -27.9725 332.635 -36.0964C331.162 -65.4894 305.628 -91.856 276.275 -94.5939C263.929 -95.6779 246.994 -92.7519 237.59 -84.2368C230.173 -77.4478 225.907 -67.3068 226.374 -57.2808C227.039 -44.5318 234.803 -32.6134 234.005 -19.8137C233.306 -6.96868 224.651 3.32423 214.055 9.97944C205.465 15.3953 195.746 19.339 187.724 25.6126C179.702 31.8863 173.278 41.7607 174.82 51.7983C176.569 63.4861 187.883 71.0405 198.069 77.1228C210.901 84.771 238.012 94.265 245.161 108.057C253.412 123.907 238.55 142.02 234.644 156.633C229.446 175.922 242.075 200.591 261.491 206.695C274.487 210.827 289.769 206.789 298.975 196.867C309.825 185.182 311.781 168.003 318.676 153.676C324.206 142.078 333.43 132.643 344.369 126.024C356.456 118.733 365.866 119.674 378.692 117.866C402.934 114.443 422.856 87.8684 425.183 64.8761C426.025 55.9261 424.899 46.5566 420.313 38.7206C418.273 35.0376 415.618 31.912 412.494 29.2902Z" fill="#F8CBCB"/>
</g>
</svg>
