<svg width="72" height="72" viewBox="0 0 72 72" fill="none" xmlns="http://www.w3.org/2000/svg">
<path d="M33.7496 4.5V13.5H31.4996C30.2576 13.5 29.2496 14.508 29.2496 15.75V22.5C20.5646 22.5 13.4996 29.565 13.4996 38.25C13.4996 39.492 14.5076 40.5 15.7496 40.5H27.3191C28.3248 44.37 31.8191 47.25 35.9996 47.25C40.1801 47.25 43.6743 44.37 44.6801 40.5H56.2496C57.4916 40.5 58.4996 39.492 58.4996 38.25C58.4996 29.565 51.4346 22.5 42.7496 22.5V15.75C42.7496 14.508 41.7416 13.5 40.4996 13.5H38.2496V4.5H33.7496ZM33.7496 18H38.2496V22.5H33.7496V18ZM35.9996 42.75C34.3413 42.75 32.9058 41.8387 32.1251 40.5H39.8741C39.0933 41.8387 37.6578 42.75 35.9996 42.75ZM18.2268 36C19.2708 30.8722 23.8181 27 29.2496 27H42.7496C48.1833 27 52.7283 30.8722 53.7723 36H18.2268ZM59.1588 55.5908L50.1588 46.5908C49.2791 45.711 49.2791 44.289 50.1588 43.4092C51.0386 42.5295 52.4606 42.5295 53.3403 43.4092L62.3403 52.4092C63.2201 53.289 63.2201 54.711 62.3403 55.5908C61.4606 56.4705 60.0386 56.4705 59.1588 55.5908ZM47.2856 62.8358C48.4353 62.3655 48.9866 61.0515 48.5163 59.9017L44.8331 50.8995C44.3628 49.7475 43.0398 49.203 41.8968 49.6688C40.7471 50.139 40.1958 51.453 40.6661 52.6027L44.3493 61.605C44.8196 62.757 46.1426 63.3015 47.2856 62.8358ZM12.8403 55.5908L21.8403 46.5908C22.7201 45.711 22.7201 44.289 21.8403 43.4092C20.9606 42.5295 19.5386 42.5295 18.6588 43.4092L9.65884 52.4092C8.77909 53.289 8.77909 54.711 9.65884 55.5908C10.5386 56.4705 11.9606 56.4705 12.8403 55.5908ZM27.6498 61.605L31.3331 52.6027C31.8033 51.453 31.2521 50.139 30.1023 49.6688C28.9593 49.203 27.6363 49.7497 27.1661 50.8995L23.4828 59.9017C23.0126 61.0515 23.5638 62.3655 24.7136 62.8358C25.8566 63.3015 27.1796 62.757 27.6498 61.605Z" fill="#FFB27D"/>
</svg>
