<svg width="72" height="72" viewBox="0 0 72 72" fill="none" xmlns="http://www.w3.org/2000/svg">
<path d="M36 6.75C19.872 6.75 6.75 19.872 6.75 36C6.75 52.128 19.872 65.25 36 65.25C52.128 65.25 65.25 52.128 65.25 36C65.25 19.872 52.128 6.75 36 6.75ZM36 60.75C22.3538 60.75 11.25 49.6463 11.25 36C11.25 22.3538 22.3538 11.25 36 11.25C49.6463 11.25 60.75 22.3538 60.75 36C60.75 49.6463 49.6463 60.75 36 60.75ZM18 36C18 37.242 16.992 38.25 15.75 38.25C14.508 38.25 13.5 37.242 13.5 36C13.5 34.758 14.508 33.75 15.75 33.75C16.992 33.75 18 34.758 18 36ZM58.5 36C58.5 37.242 57.492 38.25 56.25 38.25C55.008 38.25 54 37.242 54 36C54 34.758 55.008 33.75 56.25 33.75C57.492 33.75 58.5 34.758 58.5 36ZM38.25 56.25C38.25 57.492 37.242 58.5 36 58.5C34.758 58.5 33.75 57.492 33.75 56.25C33.75 55.008 34.758 54 36 54C37.242 54 38.25 55.008 38.25 56.25ZM33.75 15.75C33.75 14.508 34.758 13.5 36 13.5C37.242 13.5 38.25 14.508 38.25 15.75C38.25 16.992 37.242 18 36 18C34.758 18 33.75 16.992 33.75 15.75ZM23.2718 20.0903C24.1515 20.97 24.1515 22.3943 23.2718 23.2718C22.392 24.1515 20.9677 24.1515 20.0903 23.2718C19.2127 22.392 19.2105 20.9677 20.0903 20.0903C20.9677 19.2105 22.3943 19.2105 23.2718 20.0903ZM23.2718 48.7282C24.1515 49.608 24.1515 51.0322 23.2718 51.9097C22.392 52.7895 20.9677 52.7895 20.0903 51.9097C19.2105 51.03 19.2105 49.6057 20.0903 48.7282C20.97 47.8507 22.3943 47.8485 23.2718 48.7282ZM51.9097 48.7282C52.7895 49.608 52.7895 51.0322 51.9097 51.9097C51.03 52.7895 49.6057 52.7895 48.7282 51.9097C47.8485 51.03 47.8485 49.6057 48.7282 48.7282C49.6057 47.8485 51.0322 47.8485 51.9097 48.7282ZM36 38.25C35.424 38.25 34.848 38.0295 34.4093 37.5908L25.4093 28.5907C24.5295 27.711 24.5295 26.289 25.4093 25.4093C26.289 24.5295 27.711 24.5295 28.5907 25.4093L36 32.8185L48.7282 20.0903C49.608 19.2105 51.03 19.2105 51.9097 20.0903C52.7895 20.97 52.7895 22.392 51.9097 23.2718L37.5908 37.5908C37.152 38.0295 36.576 38.25 36 38.25Z" fill="#180A53"/>
</svg>
