<svg width="108" height="150" viewBox="0 0 108 150" fill="none" xmlns="http://www.w3.org/2000/svg">
<path d="M132.991 6.12909C133.139 3.67748 131.316 1.71619 128.851 1.71619H60.6303C58.1657 1.71619 56.0461 3.67748 55.8982 6.12909L54.3209 29.6156L44.5117 101.938C44.1667 104.39 45.8919 106.351 48.3565 106.351H116.577C119.042 106.351 121.309 104.39 121.605 101.938L131.414 29.6646L132.991 6.12909Z" fill="#407BFF"/>
<path opacity="0.2" d="M132.991 6.12909C133.139 3.67748 131.316 1.71619 128.851 1.71619H60.6303C58.1657 1.71619 56.0461 3.67748 55.8982 6.12909L54.3209 29.6156L44.5117 101.938C44.1667 104.39 45.8919 106.351 48.3565 106.351H116.577C119.042 106.351 121.309 104.39 121.605 101.938L131.414 29.6646L132.991 6.12909Z" fill="black"/>
<path d="M114.162 106.351H45.8917C43.427 106.351 41.7018 104.39 42.0469 101.938L51.856 29.6644H128.999L119.189 101.938C118.844 104.39 116.626 106.351 114.162 106.351Z" fill="#407BFF"/>
<path d="M70.7841 0H60.6299V0.490323H70.7841V0Z" fill="#407BFF"/>
<path d="M55.7997 1.02968L55.6025 0.588388C56.4405 0.196129 57.3278 0 58.215 0V0.490323C57.3771 0.490323 56.5884 0.686452 55.7997 1.02968Z" fill="#407BFF"/>
<path d="M126.435 1.71619H58.2147C55.7501 1.71619 53.6305 3.67748 53.4826 6.12909L51.9053 29.6156H129.048L130.625 6.12909C130.773 3.67748 128.9 1.71619 126.435 1.71619Z" fill="#407BFF"/>
<path opacity="0.9" d="M55.7011 23.8788L56.7856 7.45296C56.8841 6.17812 57.9686 5.14844 59.2995 5.14844H124.908C126.189 5.14844 127.175 6.17812 127.076 7.45296L125.992 23.8788C125.893 25.1536 124.809 26.1833 123.478 26.1833H57.87C56.5884 26.2323 55.6025 25.1536 55.7011 23.8788Z" fill="white"/>
<path opacity="0.4" d="M101.148 22.7513C101.198 22.359 101.493 22.0648 101.888 22.0648H110.267C110.662 22.0648 111.007 22.408 110.957 22.8003C110.908 23.1926 110.612 23.4868 110.218 23.4868H101.838C101.444 23.5358 101.099 23.1926 101.148 22.7513Z" fill="#407BFF"/>
<path opacity="0.4" d="M90.6494 22.7513C90.6987 22.359 90.9945 22.0648 91.3888 22.0648H99.7685C100.163 22.0648 100.508 22.408 100.459 22.8003C100.409 23.1926 100.114 23.4868 99.7192 23.4868H91.3395C90.9452 23.5358 90.6494 23.1926 90.6494 22.7513Z" fill="#407BFF"/>
<path opacity="0.4" d="M80.1997 22.7513C80.249 22.359 80.5447 22.0648 80.9391 22.0648H89.3188C89.7131 22.0648 90.0582 22.408 90.0089 22.8003C89.9596 23.1926 89.6638 23.4868 89.2695 23.4868H80.8898C80.4462 23.5358 80.1504 23.1926 80.1997 22.7513Z" fill="#407BFF"/>
<path opacity="0.1" d="M57.0319 63.1536L60.1373 40.4517C60.3345 38.9317 61.7146 37.7549 63.2427 37.7549H86.065C87.5931 37.7549 88.6282 38.9807 88.4311 40.4517L85.3257 63.1536C85.1285 64.6736 83.7483 65.8504 82.2202 65.8504H59.3979C57.8698 65.8994 56.8347 64.6736 57.0319 63.1536Z" fill="#263238"/>
<path opacity="0.1" d="M89.5153 63.1536L92.6207 40.4517C92.8178 38.9317 94.198 37.7549 95.7261 37.7549H118.548C120.077 37.7549 121.112 38.9807 120.914 40.4517L117.809 63.1536C117.612 64.6736 116.232 65.8504 114.704 65.8504H91.8813C90.3532 65.8994 89.3181 64.6736 89.5153 63.1536Z" fill="#263238"/>
<path opacity="0.1" d="M52.6451 95.5152L55.7506 72.8132C55.9477 71.2932 57.3279 70.1165 58.856 70.1165H81.6783C83.2064 70.1165 84.2415 71.3423 84.0444 72.8132L80.9389 95.5152C80.7418 97.0352 79.3616 98.212 77.8335 98.212H55.0112C53.4831 98.212 52.448 96.9862 52.6451 95.5152Z" fill="#263238"/>
<path opacity="0.1" d="M85.1285 95.5152L88.234 72.8132C88.4311 71.2932 89.8113 70.1165 91.3394 70.1165H114.162C115.69 70.1165 116.725 71.3423 116.528 72.8132L113.422 95.5152C113.225 97.0352 111.845 98.212 110.317 98.212H87.4946C85.9665 98.212 84.9314 96.9862 85.1285 95.5152Z" fill="#263238"/>
<path d="M55.5036 63.1536L58.6091 40.4517C58.8062 38.9317 60.1864 37.7549 61.7145 37.7549H84.5368C86.0649 37.7549 87.1 38.9807 86.9029 40.4517L83.7974 63.1536C83.6003 64.6736 82.2201 65.8504 80.692 65.8504H57.8697C56.3909 65.8994 55.3065 64.6736 55.5036 63.1536Z" fill="#407BFF"/>
<path opacity="0.2" d="M55.5036 63.1536L58.6091 40.4517C58.8062 38.9317 60.1864 37.7549 61.7145 37.7549H84.5368C86.0649 37.7549 87.1 38.9807 86.9029 40.4517L83.7974 63.1536C83.6003 64.6736 82.2201 65.8504 80.692 65.8504H57.8697C56.3909 65.8994 55.3065 64.6736 55.5036 63.1536Z" fill="white"/>
<path d="M87.987 63.1536L91.0925 40.4517C91.2896 38.9317 92.6698 37.7549 94.1979 37.7549H117.02C118.548 37.7549 119.583 38.9807 119.386 40.4517L116.281 63.1536C116.084 64.6736 114.703 65.8504 113.175 65.8504H90.3531C88.8743 65.8994 87.7899 64.6736 87.987 63.1536Z" fill="#407BFF"/>
<path opacity="0.2" d="M87.987 63.1536L91.0925 40.4517C91.2896 38.9317 92.6698 37.7549 94.1979 37.7549H117.02C118.548 37.7549 119.583 38.9807 119.386 40.4517L116.281 63.1536C116.084 64.6736 114.703 65.8504 113.175 65.8504H90.3531C88.8743 65.8994 87.7899 64.6736 87.987 63.1536Z" fill="white"/>
<path d="M51.1168 95.5152L54.2222 72.8132C54.4194 71.2932 55.7996 70.1165 57.3277 70.1165H80.15C81.6781 70.1165 82.7132 71.3423 82.516 72.8132L79.4106 95.5152C79.2135 97.0352 77.8333 98.212 76.3052 98.212H53.4829C51.9548 98.212 50.9197 96.9862 51.1168 95.5152Z" fill="#407BFF"/>
<path opacity="0.2" d="M51.1168 95.5152L54.2222 72.8132C54.4194 71.2932 55.7996 70.1165 57.3277 70.1165H80.15C81.6781 70.1165 82.7132 71.3423 82.516 72.8132L79.4106 95.5152C79.2135 97.0352 77.8333 98.212 76.3052 98.212H53.4829C51.9548 98.212 50.9197 96.9862 51.1168 95.5152Z" fill="white"/>
<path d="M83.6003 95.5152L86.7057 72.8132C86.9029 71.2932 88.2831 70.1165 89.8111 70.1165H112.633C114.162 70.1165 115.197 71.3423 115 72.8132L111.894 95.5152C111.697 97.0352 110.317 98.212 108.789 98.212H85.9663C84.4876 98.212 83.4032 96.9862 83.6003 95.5152Z" fill="#407BFF"/>
<path opacity="0.2" d="M83.6003 95.5152L86.7057 72.8132C86.9029 71.2932 88.2831 70.1165 89.8111 70.1165H112.633C114.162 70.1165 115.197 71.3423 115 72.8132L111.894 95.5152C111.697 97.0352 110.317 98.212 108.789 98.212H85.9663C84.4876 98.212 83.4032 96.9862 83.6003 95.5152Z" fill="white"/>
<path d="M69.8969 61.2905C68.3689 61.2905 67.3337 60.0647 67.5309 58.5447L69.3547 45.1098C69.5519 43.5898 70.9814 42.364 72.4601 42.364C73.9882 42.364 75.0233 43.5898 74.8262 45.1098L73.0023 58.5447C72.8052 60.0647 71.425 61.2905 69.8969 61.2905Z" fill="white"/>
<path d="M61.7145 51.8274C61.9117 50.3073 63.3411 49.0815 64.8199 49.0815H78.326C79.8541 49.0815 80.8892 50.3073 80.692 51.8274C80.4949 53.3474 79.0654 54.5732 77.5866 54.5732H64.0805C62.5525 54.5732 61.5173 53.3474 61.7145 51.8274Z" fill="white"/>
<path d="M59.2008 90.8079C58.2642 89.7292 58.5107 88.013 59.743 86.9343L70.5873 77.4221C71.8196 76.3434 73.5449 76.3434 74.4814 77.4221C75.418 78.5008 75.1715 80.2169 73.9392 81.2956L63.0949 90.8079C61.8626 91.8866 60.0881 91.8866 59.2008 90.8079Z" fill="white"/>
<path d="M61.0243 77.4711C62.2566 76.3924 63.9818 76.3924 64.9184 77.4711L73.1995 86.9834C74.136 88.0621 73.8896 89.7782 72.6572 90.857C71.4249 91.9357 69.6997 91.9357 68.7632 90.857L60.482 81.3447C59.5455 80.266 59.792 78.5499 61.0243 77.4711Z" fill="white"/>
<path d="M94.1989 51.8274C94.396 50.3073 95.8255 49.0815 97.3043 49.0815H110.81C112.338 49.0815 113.374 50.3073 113.176 51.8274C112.979 53.3474 111.55 54.5732 110.071 54.5732H96.5649C95.0368 54.5732 94.0017 53.3474 94.1989 51.8274Z" fill="white"/>
<path d="M90.4031 79.9228C90.6003 78.4028 92.0298 77.177 93.5086 77.177H107.015C108.543 77.177 109.578 78.4028 109.381 79.9228C109.184 81.4428 107.754 82.6686 106.275 82.6686H92.7692C91.2411 82.6196 90.1567 81.3938 90.4031 79.9228Z" fill="white"/>
<path d="M89.2195 88.3564C89.4166 86.8364 90.8461 85.6106 92.3249 85.6106H105.831C107.359 85.6106 108.394 86.8364 108.197 88.3564C108 89.8764 106.57 91.1022 105.092 91.1022H91.5855C90.1067 91.1022 89.0223 89.8764 89.2195 88.3564Z" fill="white"/>
<path d="M19.8654 33.9303C18.9781 35.5483 18.0909 37.3135 17.2529 39.0786C16.4149 40.7948 15.6263 42.5599 14.9362 44.3251C14.739 44.7664 14.5911 45.2077 14.4432 45.649C14.3447 45.8451 14.2954 46.0903 14.2954 46.3845C14.2461 46.9238 14.394 47.6593 14.6897 48.3948C15.2812 49.9148 16.3657 51.5328 17.4994 52.9548L15.8234 54.9161C15.3305 54.5728 14.8869 54.2787 14.4925 53.9354C14.0489 53.5922 13.6546 53.249 13.2602 52.8567C12.4716 52.0722 11.7322 51.2387 11.0914 50.209C10.4506 49.1793 9.95765 47.9535 9.80977 46.5316C9.76048 45.7961 9.80977 45.0116 10.0069 44.2761C10.1548 43.7857 10.2534 43.2464 10.4506 42.7561C11.0421 40.7457 11.7815 38.7844 12.6194 36.8722C13.0631 35.9406 13.4574 35.009 13.9503 34.0774C14.4432 33.1457 14.8869 32.2632 15.4784 31.3315L19.8654 33.9303Z" fill="#FF8B7B"/>
<path d="M16.7116 52.3663L19.1762 53.0038L17.3524 56.5341C17.3524 56.5341 15.5286 55.8476 15.085 54.2296L16.7116 52.3663Z" fill="#FF8B7B"/>
<path d="M22.5765 54.1317L20.3584 56.9265L17.3516 56.5342L19.1754 53.0039L22.5765 54.1317Z" fill="#FF8B7B"/>
<path d="M31.4501 15.1999C31.4994 15.4941 31.6965 15.6412 31.8937 15.6412C32.0909 15.5921 32.1894 15.347 32.1402 15.1018C32.0909 14.8076 31.8937 14.6605 31.6965 14.6605C31.4994 14.7096 31.4008 14.9547 31.4501 15.1999Z" fill="#263238"/>
<path d="M31.6963 15.6902C31.6963 15.6902 32.6328 17.1612 33.4708 17.7495C33.0765 18.2889 32.1892 18.2399 32.1892 18.2399L31.6963 15.6902Z" fill="#FF5652"/>
<path d="M32.0407 17.5533C31.252 17.5533 30.4633 16.6708 30.2168 15.494C30.069 14.8566 30.1183 14.2191 30.3154 13.7288C30.5126 13.2385 30.8576 12.8953 31.3013 12.7972C31.7449 12.6991 32.1885 12.8953 32.5829 13.2875C32.9772 13.6798 33.273 14.2191 33.3715 14.8566C33.5194 15.494 33.4701 16.1314 33.273 16.6217C33.0758 17.112 32.7308 17.4553 32.2871 17.5533C32.1885 17.5533 32.1392 17.5533 32.0407 17.5533ZM31.5477 12.8953C31.4984 12.8953 31.3999 12.8953 31.3506 12.8953C30.9562 12.9933 30.6605 13.2875 30.4633 13.7288C30.2661 14.2191 30.2168 14.8075 30.3647 15.3959C30.6112 16.6217 31.4492 17.5043 32.2871 17.3572C32.6815 17.2591 32.9772 16.965 33.1744 16.5237C33.3716 16.0333 33.4208 15.445 33.273 14.8566C33.1251 14.2682 32.8786 13.7288 32.5336 13.3366C32.1885 13.0424 31.8435 12.8953 31.5477 12.8953Z" fill="#263238"/>
<path d="M57.4265 43.4914L60.5812 42.8049L60.9756 47.0707C60.9756 47.0707 58.2645 47.6101 56.9336 45.4527L57.4265 43.4914Z" fill="#FF8B7B"/>
<path d="M63.5884 43.7856L63.3912 46.8746L61.0252 47.0707L60.6309 42.8049L63.5884 43.7856Z" fill="#FF8B7B"/>
<path d="M30.1678 13.9252C30.1185 13.9252 30.0692 13.9252 30.0692 13.8761C30.0199 13.8271 30.0199 13.729 30.0692 13.631C30.71 12.9445 31.4494 13.0916 31.4494 13.0916C31.548 13.0916 31.5973 13.1897 31.5973 13.2877C31.5973 13.3858 31.4987 13.4348 31.4001 13.4348C31.4001 13.4348 30.8086 13.3368 30.3157 13.8761C30.2664 13.8761 30.2171 13.9252 30.1678 13.9252Z" fill="#263238"/>
<path d="M23.8589 20.2009C24.3518 22.7016 24.6476 26.2319 22.873 27.899C22.873 27.899 23.5631 30.4487 28.2952 30.4487C33.4709 30.4487 30.8091 28.1932 30.8091 28.1932C28.6402 27.5067 28.6895 25.1042 29.1825 23.1429L23.8589 20.2009Z" fill="#FF8B7B"/>
<path d="M29.1826 27.2618C30.3656 26.4282 32.0909 25.4476 32.4359 26.4773C32.6331 27.1147 32.7317 30.1056 31.5486 29.8605C29.7741 29.5173 29.1826 27.2618 29.1826 27.2618Z" fill="#263238"/>
<path d="M21.9362 29.5663C21.4925 28.9288 21.4925 26.8695 21.9855 26.4772C22.7741 25.8888 26.1753 25.7417 30.7595 26.8204C30.2666 28.8308 31.3017 29.8604 31.3017 29.8604L21.9362 29.5663Z" fill="#407BFF"/>
<path d="M6.50789 145.969C6.85294 146.067 7.19798 146.067 7.39515 145.92C7.44445 145.871 7.54303 145.724 7.49374 145.528C7.44445 145.43 7.39515 145.332 7.29657 145.283C6.85294 145.037 5.76851 145.479 5.71921 145.528C5.66992 145.528 5.66992 145.577 5.66992 145.577C5.66992 145.626 5.66992 145.626 5.71921 145.675C5.8178 145.773 6.16285 145.92 6.50789 145.969ZM7.05011 145.43C7.0994 145.43 7.0994 145.43 7.14869 145.479C7.19798 145.528 7.24728 145.577 7.29657 145.626C7.34586 145.773 7.29657 145.822 7.24728 145.822C7.05011 145.969 6.36001 145.822 5.86709 145.626C6.21214 145.479 6.75435 145.332 7.05011 145.43Z" fill="#407BFF"/>
<path d="M5.66932 145.675C6.11295 145.577 6.95092 144.988 6.95092 144.596C6.95092 144.547 6.95092 144.4 6.75375 144.351C6.65517 144.302 6.50729 144.302 6.4087 144.4C5.96507 144.645 5.66932 145.577 5.62003 145.626C5.57073 145.626 5.62003 145.626 5.66932 145.675C5.66932 145.675 5.62003 145.675 5.66932 145.675ZM6.65517 144.449C6.65517 144.498 6.65517 144.498 6.65517 144.449C6.80304 144.498 6.80304 144.547 6.80304 144.547C6.80304 144.792 6.26083 145.234 5.8172 145.43C5.91578 145.136 6.16224 144.596 6.458 144.449C6.50729 144.449 6.55658 144.449 6.65517 144.449Z" fill="#407BFF"/>
<path d="M32.0903 146.558C32.5339 146.558 32.9776 146.509 33.1254 146.312C33.1747 146.263 33.224 146.116 33.1254 145.969C33.0761 145.871 32.9776 145.822 32.879 145.773C32.2875 145.626 31.1044 146.312 31.0552 146.312C31.0059 146.312 31.0059 146.362 31.0059 146.411C31.0059 146.46 31.0552 146.46 31.0552 146.46C31.2523 146.509 31.696 146.558 32.0903 146.558ZM32.6325 145.871C32.6818 145.871 32.7311 145.871 32.7804 145.871C32.879 145.871 32.9283 145.92 32.9283 145.969C32.9776 146.067 32.9776 146.116 32.9283 146.165C32.7804 146.411 31.8931 146.411 31.2523 146.312C31.6467 146.165 32.2382 145.871 32.6325 145.871Z" fill="#407BFF"/>
<path d="M31.0551 146.459C31.0551 146.459 31.1044 146.459 31.0551 146.459C31.4987 146.263 32.3367 145.528 32.2874 145.135C32.2874 145.037 32.1888 144.939 31.9916 144.89C31.8437 144.89 31.6466 144.939 31.548 145.037C31.1044 145.38 31.0058 146.312 31.0058 146.361C30.9565 146.41 31.0058 146.41 31.0551 146.459C31.0551 146.459 31.0058 146.459 31.0551 146.459ZM31.893 145.037H31.9423C32.0902 145.037 32.0902 145.086 32.0902 145.135C32.1395 145.38 31.548 145.969 31.1536 146.214C31.2029 145.92 31.3015 145.38 31.5973 145.135C31.6959 145.086 31.7944 145.037 31.893 145.037Z" fill="#407BFF"/>
<path d="M27.2598 146.361H30.7102L31.0553 138.369H27.6048L27.2598 146.361Z" fill="#FF8B7B"/>
<path d="M1.77539 144.792L5.17656 145.528L8.57773 138.075L5.22585 137.339L1.77539 144.792Z" fill="#FF8B7B"/>
<path d="M5.52174 145.184L1.72623 144.351C1.57835 144.302 1.43047 144.4 1.38118 144.498L0.0502875 147.342C-0.0975895 147.636 0.0995798 147.979 0.395334 148.028C1.72623 148.274 2.41632 148.372 4.04297 148.715C5.0781 148.96 7.39484 149.499 8.82432 149.794C10.2045 150.088 10.7467 148.764 10.2045 148.47C7.73989 147.342 6.65546 146.361 6.01466 145.43C5.91607 145.332 5.71891 145.234 5.52174 145.184Z" fill="#263238"/>
<path d="M30.7098 145.969H26.9142C26.7664 145.969 26.6678 146.067 26.6185 146.214L25.9284 149.303C25.8791 149.597 26.0763 149.941 26.4213 149.941C27.8015 149.941 29.7732 149.843 31.4984 149.843C33.5194 149.843 35.2446 149.941 37.6107 149.941C39.0402 149.941 39.4345 148.519 38.843 148.372C36.1319 147.783 33.9138 147.734 31.5477 146.263C31.252 146.067 31.0055 145.969 30.7098 145.969Z" fill="#263238"/>
<path d="M16.6622 28.6346C13.4089 29.3701 10.7471 37.6075 10.7471 37.6075L17.2537 42.6088C17.2537 42.6088 19.669 40.3533 20.7041 36.2346C21.8378 31.9198 20.014 27.8991 16.6622 28.6346Z" fill="#407BFF"/>
<path opacity="0.4" d="M16.6622 28.6346C13.4089 29.3701 10.7471 37.6075 10.7471 37.6075L17.2537 42.6088C17.2537 42.6088 19.669 40.3533 20.7041 36.2346C21.8378 31.9198 20.014 27.8991 16.6622 28.6346Z" fill="white"/>
<path d="M36.1813 32.6063L41.6528 37.6076C42.5401 38.4412 43.4766 39.2747 44.4132 40.0592C45.3004 40.8928 46.237 41.6773 47.1242 42.4128L46.3356 42.0205C46.7792 42.1676 47.2228 42.3147 47.6665 42.4618C48.1594 42.5599 48.603 42.707 49.0959 42.805C50.0818 43.0012 51.1169 43.0992 52.2014 43.1973C53.2858 43.2954 54.3209 43.3444 55.4546 43.3934C56.5391 43.4425 57.6728 43.4425 58.7572 43.4425L59.2995 45.9921C58.1164 46.4334 57.032 46.7276 55.849 46.9728C54.666 47.2179 53.483 47.4141 52.2999 47.5121C51.1169 47.6102 49.8846 47.6592 48.603 47.5612C47.3214 47.4631 46.0398 47.267 44.7582 46.9238L44.3639 46.8257L43.9695 46.5315C42.8851 45.6979 41.9486 44.9134 40.9627 44.0799C40.0261 43.2463 39.0403 42.4128 38.1038 41.5792C36.2306 39.9121 34.4068 38.196 32.583 36.4799L36.1813 32.6063Z" fill="#FF8B7B"/>
<path opacity="0.2" d="M19.4715 34.7146C17.6969 36.4307 17.1547 39.6178 17.0068 42.3636L17.3026 42.6088C17.3026 42.6088 19.7179 40.3533 20.7531 36.2346C20.8023 35.9894 20.8516 35.6952 20.9009 35.4501L19.4715 34.7146Z" fill="black"/>
<path d="M37.217 32.1159C37.9071 35.8423 38.3507 43.4914 36.3298 58.6423H17.7465C17.5987 55.7985 19.4225 42.0204 16.6621 28.6346C16.6621 28.6346 19.8168 27.9971 22.8729 27.8501C25.239 27.752 28.6894 27.6539 30.7597 27.8501C31.647 27.9481 32.485 28.0462 33.2243 28.1933C35.2453 28.5855 36.8227 30.1055 37.217 32.1159Z" fill="#407BFF"/>
<path opacity="0.4" d="M37.217 32.1159C37.9071 35.8423 38.3507 43.4914 36.3298 58.6423H17.7465C17.5987 55.7985 19.4225 42.0204 16.6621 28.6346C16.6621 28.6346 19.8168 27.9971 22.8729 27.8501C25.239 27.752 28.6894 27.6539 30.7597 27.8501C31.647 27.9481 32.485 28.0462 33.2243 28.1933C35.2453 28.5855 36.8227 30.1055 37.217 32.1159Z" fill="white"/>
<path opacity="0.2" d="M34.3574 37.6075L37.7093 36.823C37.8079 38.8333 37.8079 41.334 37.66 44.423C36.132 42.7069 34.1603 39.9611 34.3574 37.6075Z" fill="black"/>
<path opacity="0.2" d="M31.0549 138.369L30.8577 142.488H27.4072L27.6044 138.369H31.0549Z" fill="black"/>
<path opacity="0.2" d="M5.1764 137.339L8.57757 138.075L6.85234 141.899L3.45117 141.164L5.1764 137.339Z" fill="black"/>
<path d="M22.2319 16.4748C23.1191 19.76 23.4642 21.7703 25.5345 23.1432C28.6399 25.2026 32.4847 22.849 32.5833 19.3187C32.6818 16.1806 31.2031 11.2774 27.654 10.64C24.105 10.0025 21.3446 13.1896 22.2319 16.4748Z" fill="#FF8B7B"/>
<path d="M29.7736 16.72C31.3509 16.5238 30.9073 14.7096 30.3158 13.8271C30.3158 13.8271 33.7662 9.65932 29.7736 7.99222C25.7809 6.32512 26.7667 8.92383 26.7667 8.92383C26.7667 8.92383 23.6613 6.57028 20.9502 8.48254C18.2392 10.3458 20.5559 11.1793 20.5559 11.1793C20.5559 11.1793 15.6267 12.6013 17.5984 15.1019C19.57 17.6025 21.591 17.3574 21.591 17.3574C21.591 17.3574 17.4998 18.9755 20.6052 20.7406C23.7106 22.5548 24.8936 22.6038 24.8936 22.6038C26.6188 22.8 28.2455 21.7703 28.7384 20.1032L29.7736 16.72Z" fill="#263238"/>
<path d="M28.393 16.7688C28.4422 17.6514 28.8859 18.4849 29.3788 19.0733C30.1182 19.9068 30.9069 19.3675 31.0547 18.3868C31.1533 17.4552 30.9069 15.9352 30.0196 15.4939C29.083 15.0036 28.3437 15.7391 28.393 16.7688Z" fill="#FF8B7B"/>
<path d="M29.7244 58.6425C29.7244 58.6425 25.781 85.0218 23.6122 94.8773C21.2462 105.713 8.57802 141.458 8.57802 141.458L2.36719 140.134C2.36719 140.134 11.2398 110.96 13.2115 95.858C14.7396 84.2373 17.7464 58.6425 17.7464 58.6425H29.7244Z" fill="#263238"/>
<path d="M10.0571 139.399C10.1064 139.399 8.92334 141.654 8.92334 141.654L1.92383 140.134L2.51534 138.026L10.0571 139.399Z" fill="#407BFF"/>
<path opacity="0.3" d="M27.2594 68.0566C22.7245 68.9392 23.1681 85.8063 23.7596 94.485C25.0905 88.356 27.0129 76.5392 28.2945 68.1547C27.9495 68.0076 27.6044 67.9586 27.2594 68.0566Z" fill="black"/>
<path d="M36.33 58.6425C36.33 58.6425 36.8229 84.4334 36.4286 94.9264C36.0342 105.91 32.1894 141.703 32.1894 141.703H26.3236C26.3236 141.703 26.1265 106.547 25.8307 95.7599C25.5349 84.0412 24.1055 58.6425 24.1055 58.6425H36.33Z" fill="#263238"/>
<path d="M33.3224 139.398C33.3717 139.398 32.9774 141.801 32.9774 141.801H25.83L25.6328 139.644L33.3224 139.398Z" fill="#407BFF"/>
<path d="M29.9211 33.2436C28.2451 37.7056 38.005 42.952 38.005 42.952L42.2442 37.5585C42.2442 37.5585 39.4345 31.9688 35.984 29.4682C31.6956 26.3301 31.2027 29.8604 29.9211 33.2436Z" fill="#407BFF"/>
<path opacity="0.4" d="M29.9211 33.2436C28.2451 37.7056 38.005 42.952 38.005 42.952L42.2442 37.5585C42.2442 37.5585 39.4345 31.9688 35.984 29.4682C31.6956 26.3301 31.2027 29.8604 29.9211 33.2436Z" fill="white"/>
<path d="M58.0184 44.8153C58.699 44.8153 59.2507 44.4202 59.2507 43.9327C59.2507 43.4453 58.699 43.0502 58.0184 43.0502C57.3379 43.0502 56.7861 43.4453 56.7861 43.9327C56.7861 44.4202 57.3379 44.8153 58.0184 44.8153Z" fill="#263238"/>
<path d="M57.5247 46.7765C57.4754 46.7765 57.3768 46.7275 57.3275 46.6785C57.2289 46.5804 57.2289 46.4333 57.3768 46.3352C57.4261 46.2862 58.0176 45.7468 57.7711 44.423C57.7218 44.2759 57.8204 44.1778 57.9683 44.1288C58.1162 44.1288 58.2148 44.1778 58.264 44.3249C58.6091 45.943 57.7218 46.6785 57.7218 46.7275C57.6232 46.7765 57.574 46.7765 57.5247 46.7765Z" fill="#263238"/>
<path opacity="0.4" d="M59.0039 43.8345C59.0039 44.2268 58.5603 44.521 58.0181 44.521C57.4759 44.521 57.0322 44.2268 57.0322 43.8345C57.0322 43.4423 57.4759 43.1481 58.0181 43.1481C58.5603 43.1481 59.0039 43.4913 59.0039 43.8345Z" fill="white"/>
<path d="M31.4987 27.8993C29.2312 29.5174 25.2878 35.7445 24.5977 39.4219C24.5977 39.5199 24.4499 39.569 24.3513 39.4709C21.0487 34.2735 20.7037 28.929 20.6544 28.0464C20.6544 27.9974 20.6051 27.9483 20.5065 27.9483C20.1614 27.9974 19.2742 28.0464 18.8798 28.1445C18.8305 28.1445 18.7812 28.1935 18.7812 28.2915C19.077 35.2541 22.5768 40.5496 23.9569 42.2167C23.9569 42.2167 24.0062 42.2658 24.0062 42.3148C23.7105 47.8554 24.1048 57.7109 24.1541 58.8877C24.1541 58.9367 24.2034 58.9858 24.2527 58.9858H25.7315C25.7808 58.9858 25.8793 58.9367 25.8301 58.8387C25.7808 57.7109 25.2878 49.1303 25.8301 42.1187C26.668 36.8722 31.6465 29.8116 33.3718 28.4386C33.4704 28.3896 33.4211 28.2425 33.3225 28.2425C32.5831 28.0954 31.7451 27.9974 31.548 27.9483C31.548 27.8993 31.4987 27.8993 31.4987 27.8993Z" fill="#407BFF"/>
</svg>
