<svg width="18" height="20" viewBox="0 0 18 20" fill="none" xmlns="http://www.w3.org/2000/svg">
<path d="M14.698 2.46793L14.6863 2.45559C13.1761 0.87207 11.1577 0 9.00274 0C6.84465 0 4.82234 0.874258 3.3084 2.46176C0.192462 5.72898 0.189845 11.0424 3.3025 14.3062L8.54797 19.8064C8.66594 19.9301 8.82938 20 9.00027 20C9.17117 20 9.33461 19.9301 9.45258 19.8064L14.6922 14.3124C17.8081 11.0452 17.8107 5.73176 14.698 2.46793ZM13.7876 13.4497L9.00027 18.4694L4.20707 13.4435C1.54805 10.6554 1.5507 6.11598 4.21297 3.32441C5.48875 1.98672 7.18981 1.25 9.00274 1.25C10.8125 1.25 12.5097 1.98453 13.7816 3.31824L13.7934 3.33059C16.4525 6.11875 16.4498 10.6582 13.7876 13.4497ZM9.00027 4.36609C6.78176 4.36609 4.97684 6.17102 4.97684 8.38953C4.97684 10.608 6.78176 12.413 9.00027 12.413C11.2188 12.413 13.0237 10.608 13.0237 8.38953C13.0237 6.17102 11.2188 4.36609 9.00027 4.36609ZM9.00027 11.163C7.47098 11.163 6.22684 9.91879 6.22684 8.38953C6.22684 6.86027 7.47102 5.61609 9.00027 5.61609C10.5295 5.61609 11.7737 6.86027 11.7737 8.38953C11.7737 9.91883 10.5296 11.163 9.00027 11.163Z" fill="#ED145B"/>
</svg>
