<svg width="72" height="72" viewBox="0 0 72 72" fill="none" xmlns="http://www.w3.org/2000/svg">
<path d="M60.75 60.7499H18V56.2499H24.75C25.992 56.2499 27 55.2442 27 53.9999V47.2499H33.75C34.992 47.2499 36 46.2442 36 44.9999V38.2499H42.75C43.992 38.2499 45 37.2442 45 35.9999V29.2499H51.75C52.992 29.2499 54 28.2442 54 26.9999V20.2499H60.75V15.7499H51.75C50.508 15.7499 49.5 16.7557 49.5 17.9999V24.7499H45V16.6837L52.6815 9.0022H60.75V4.5022H51.75C51.1538 4.5022 50.58 4.73845 50.1592 5.16145L23.1637 32.1569C23.1615 32.1592 23.1592 32.1614 23.157 32.1637L11.9093 43.4092C11.0295 44.2889 11.0295 45.7109 11.9093 46.5907C12.789 47.4704 14.2132 47.4704 15.0907 46.5907L22.5 39.1814V51.7499H15.75C14.508 51.7499 13.5 52.7557 13.5 53.9999V60.7499H9V65.2499H60.75V60.7499ZM27 34.6814L40.5 21.1814V33.7499H33.75C32.508 33.7499 31.5 34.7557 31.5 35.9999V42.7499H27V34.6814Z" fill="#89B849"/>
</svg>
